<svg width="52" height="52" viewBox="0 0 52 52" fill="none" xmlns="http://www.w3.org/2000/svg">
<rect width="52" height="52" rx="26" fill="#16213E" fill-opacity="0.05"/>
<path d="M26.1202 26.78C26.0502 26.77 25.9602 26.77 25.8802 26.78C24.1202 26.72 22.7202 25.28 22.7202 23.51C22.7202 21.7 24.1802 20.23 26.0002 20.23C27.8102 20.23 29.2802 21.7 29.2802 23.51C29.2702 25.28 27.8802 26.72 26.1202 26.78Z" stroke="#292D32" stroke-width="1.5" stroke-linecap="round" stroke-linejoin="round"/>
<path d="M32.7398 33.3801C30.9598 35.0101 28.5998 36.0001 25.9998 36.0001C23.3998 36.0001 21.0398 35.0101 19.2598 33.3801C19.3598 32.4401 19.9598 31.5201 21.0298 30.8001C23.7698 28.9801 28.2498 28.9801 30.9698 30.8001C32.0398 31.5201 32.6398 32.4401 32.7398 33.3801Z" stroke="#292D32" stroke-width="1.5" stroke-linecap="round" stroke-linejoin="round"/>
<path d="M26 36C31.5228 36 36 31.5228 36 26C36 20.4772 31.5228 16 26 16C20.4772 16 16 20.4772 16 26C16 31.5228 20.4772 36 26 36Z" stroke="#292D32" stroke-width="1.5" stroke-linecap="round" stroke-linejoin="round"/>
</svg>
