<svg width="52" height="52" viewBox="0 0 52 52" fill="none" xmlns="http://www.w3.org/2000/svg">
<rect width="52" height="52" rx="26" fill="#16213E" fill-opacity="0.05"/>
<path d="M37 32C37 32.75 36.79 33.46 36.42 34.06C36.21 34.42 35.94 34.74 35.63 35C34.93 35.63 34.01 36 33 36C31.78 36 30.69 35.45 29.97 34.59C29.95 34.56 29.92 34.54 29.9 34.51C29.78 34.37 29.67 34.22 29.58 34.06C29.21 33.46 29 32.75 29 32C29 30.74 29.58 29.61 30.5 28.88C31.19 28.33 32.06 28 33 28C34 28 34.9 28.36 35.6 28.97C35.72 29.06 35.83 29.17 35.93 29.28C36.59 30 37 30.95 37 32Z" stroke="#16213E" stroke-width="1.5" stroke-miterlimit="10" stroke-linecap="round" stroke-linejoin="round"/>
<path d="M34.4898 31.98H31.5098" stroke="#16213E" stroke-width="1.5" stroke-miterlimit="10" stroke-linecap="round" stroke-linejoin="round"/>
<path d="M33 30.52V33.51" stroke="#16213E" stroke-width="1.5" stroke-miterlimit="10" stroke-linecap="round" stroke-linejoin="round"/>
<path d="M17.1699 21.4399L25.9999 26.5499L34.7699 21.4699" stroke="#16213E" stroke-width="1.5" stroke-linecap="round" stroke-linejoin="round"/>
<path d="M26 35.61V26.54" stroke="#16213E" stroke-width="1.5" stroke-linecap="round" stroke-linejoin="round"/>
<path d="M35.6101 23.17V28.83C35.6101 28.88 35.6101 28.92 35.6001 28.97C34.9001 28.36 34.0001 28 33.0001 28C32.0601 28 31.1901 28.33 30.5001 28.88C29.5801 29.61 29.0001 30.74 29.0001 32C29.0001 32.75 29.2101 33.46 29.5801 34.06C29.6701 34.22 29.7801 34.37 29.9001 34.51L28.0701 35.52C26.9301 36.16 25.0701 36.16 23.9301 35.52L18.5901 32.56C17.3801 31.89 16.3901 30.21 16.3901 28.83V23.17C16.3901 21.79 17.3801 20.11 18.5901 19.44L23.9301 16.48C25.0701 15.84 26.9301 15.84 28.0701 16.48L33.4101 19.44C34.6201 20.11 35.6101 21.79 35.6101 23.17Z" stroke="#292D32" stroke-width="1.5" stroke-linecap="round" stroke-linejoin="round"/>
</svg>
