<svg width="20" height="20" viewBox="0 0 20 20" fill="none" xmlns="http://www.w3.org/2000/svg">
<path d="M19.1667 15.0001C19.1667 15.6251 18.9917 16.2167 18.6833 16.7167C18.5083 17.0167 18.2833 17.2834 18.025 17.5001C17.4417 18.0251 16.675 18.3334 15.8333 18.3334C14.8167 18.3334 13.9083 17.8751 13.3083 17.1584C13.2917 17.1334 13.2667 17.1168 13.25 17.0918C13.15 16.9751 13.0583 16.8501 12.9833 16.7167C12.675 16.2167 12.5 15.6251 12.5 15.0001C12.5 13.9501 12.9833 13.0084 13.75 12.4001C14.325 11.9418 15.05 11.6667 15.8333 11.6667C16.6667 11.6667 17.4167 11.9667 18 12.4751C18.1 12.5501 18.1917 12.6418 18.275 12.7334C18.825 13.3334 19.1667 14.1251 19.1667 15.0001Z" stroke="white" stroke-width="1.5" stroke-miterlimit="10" stroke-linecap="round" stroke-linejoin="round"/>
<path d="M17.0751 14.9832H14.5918" stroke="white" stroke-miterlimit="10" stroke-linecap="round" stroke-linejoin="round"/>
<path d="M15.8335 13.7666V16.2583" stroke="white" stroke-miterlimit="10" stroke-linecap="round" stroke-linejoin="round"/>
<path d="M2.6416 6.2002L9.99994 10.4585L17.3083 6.22517" stroke="white" stroke-width="1.5" stroke-linecap="round" stroke-linejoin="round"/>
<path d="M10 18.0085V10.4502" stroke="white" stroke-width="1.5" stroke-linecap="round" stroke-linejoin="round"/>
<path d="M18.0084 7.64175V12.3584C18.0084 12.4001 18.0084 12.4334 18 12.4751C17.4167 11.9667 16.6667 11.6668 15.8334 11.6668C15.05 11.6668 14.325 11.9418 13.75 12.4001C12.9834 13.0084 12.5 13.9501 12.5 15.0001C12.5 15.6251 12.675 16.2168 12.9834 16.7168C13.0584 16.8501 13.15 16.9751 13.25 17.0918L11.725 17.9334C10.775 18.4668 9.22503 18.4668 8.27503 17.9334L3.82503 15.4668C2.8167 14.9084 1.9917 13.5084 1.9917 12.3584V7.64175C1.9917 6.49175 2.8167 5.09177 3.82503 4.53343L8.27503 2.06675C9.22503 1.53341 10.775 1.53341 11.725 2.06675L16.175 4.53343C17.1834 5.09177 18.0084 6.49175 18.0084 7.64175Z" stroke="white" stroke-width="1.5" stroke-linecap="round" stroke-linejoin="round"/>
</svg>
