<svg width="20" height="20" viewBox="0 0 20 20" fill="none" xmlns="http://www.w3.org/2000/svg">
<path d="M5.30811 7.92506C1.90811 8.16673 1.91644 13.0917 5.30811 13.3334H13.3581C14.3331 13.3417 15.2748 12.9751 15.9998 12.3167C18.3831 10.2334 17.1081 6.06671 13.9665 5.66671C12.8415 -1.11662 3.01645 1.4584 5.34145 7.92506" stroke="white" stroke-width="1.5" stroke-miterlimit="10" stroke-linecap="round" stroke-linejoin="round"/>
<path d="M10 13.3333V15.8333" stroke="white" stroke-width="1.5" stroke-miterlimit="10" stroke-linecap="round" stroke-linejoin="round"/>
<path d="M10.0002 19.1666C10.9206 19.1666 11.6668 18.4204 11.6668 17.4999C11.6668 16.5794 10.9206 15.8333 10.0002 15.8333C9.07969 15.8333 8.3335 16.5794 8.3335 17.4999C8.3335 18.4204 9.07969 19.1666 10.0002 19.1666Z" stroke="white" stroke-width="1.5" stroke-miterlimit="10" stroke-linecap="round" stroke-linejoin="round"/>
<path d="M14.9998 17.5H11.6665" stroke="white" stroke-width="1.5" stroke-miterlimit="10" stroke-linecap="round" stroke-linejoin="round"/>
<path d="M8.33333 17.5H5" stroke="white" stroke-width="1.5" stroke-miterlimit="10" stroke-linecap="round" stroke-linejoin="round"/>
</svg>
