<svg width="14" height="14" viewBox="0 0 14 14" fill="none" xmlns="http://www.w3.org/2000/svg">
<path d="M7.5835 6.85414C7.47267 6.85414 7.36184 6.81331 7.27434 6.72581C7.10517 6.55664 7.10517 6.27664 7.27434 6.10747L12.0577 1.32414C12.2268 1.15497 12.5068 1.15497 12.676 1.32414C12.8452 1.49331 12.8452 1.77331 12.676 1.94247L7.89267 6.72581C7.80517 6.81331 7.69434 6.85414 7.5835 6.85414Z" fill="#6E44FF"/>
<path d="M12.8332 4.40425C12.594 4.40425 12.3957 4.20591 12.3957 3.96675V1.60425H10.0332C9.79404 1.60425 9.5957 1.40591 9.5957 1.16675C9.5957 0.927581 9.79404 0.729248 10.0332 0.729248H12.8332C13.0724 0.729248 13.2707 0.927581 13.2707 1.16675V3.96675C13.2707 4.20591 13.0724 4.40425 12.8332 4.40425Z" fill="#6E44FF"/>
<path d="M8.74984 13.2709H5.24984C2.08234 13.2709 0.729004 11.9176 0.729004 8.75008V5.25008C0.729004 2.08258 2.08234 0.729248 5.24984 0.729248H6.4165C6.65567 0.729248 6.854 0.927581 6.854 1.16675C6.854 1.40591 6.65567 1.60425 6.4165 1.60425H5.24984C2.56067 1.60425 1.604 2.56091 1.604 5.25008V8.75008C1.604 11.4392 2.56067 12.3959 5.24984 12.3959H8.74984C11.439 12.3959 12.3957 11.4392 12.3957 8.75008V7.58341C12.3957 7.34425 12.594 7.14591 12.8332 7.14591C13.0723 7.14591 13.2707 7.34425 13.2707 7.58341V8.75008C13.2707 11.9176 11.9173 13.2709 8.74984 13.2709Z" fill="#6E44FF"/>
</svg>
