<svg width="120" height="40" viewBox="0 0 120 40" fill="none" xmlns="http://www.w3.org/2000/svg">
<path d="M39.7049 18.8943C39.4126 18.1523 38.9049 17.5149 38.2474 17.0639C37.5898 16.6129 36.8124 16.369 36.0151 16.3635C35.1362 16.3635 34.2819 16.6532 33.5843 17.1879C32.8868 17.7226 32.385 18.4725 32.1566 19.3214C32.1318 19.4062 32.1125 19.4925 32.0986 19.5797C32.0453 19.8615 32.0153 20.1472 32.0089 20.4338C31.9569 22.0241 31.5894 23.5882 30.9277 25.0351C30.266 26.482 29.3233 27.7829 28.1545 28.8622C26.9857 29.9415 25.6141 30.7777 24.1193 31.322C22.6246 31.8664 21.0366 32.1082 19.4476 32.0333C16.4677 31.8841 13.6495 30.633 11.5398 28.5228C9.43008 26.4126 8.17928 23.5937 8.03011 20.6131C7.95169 18.9922 8.20278 17.3723 8.76817 15.8512C9.33356 14.3301 10.2015 12.9396 11.3195 11.7636C12.4376 10.5877 13.7824 9.65075 15.2728 9.00952C16.7632 8.3683 18.3681 8.03606 19.9905 8.03297C21.4913 8.03197 22.979 8.31273 24.3762 8.86072C24.4927 8.90845 24.6055 8.96488 24.7136 9.02948C25.1097 9.26412 25.4498 9.58245 25.7102 9.9622C25.9706 10.3419 26.145 10.774 26.2211 11.2281C26.3036 11.7507 26.2536 12.2857 26.0759 12.784C25.8982 13.2823 25.5983 13.7281 25.2038 14.0805C23.7538 15.3333 21.9013 16.022 19.9853 16.0208C20.05 16.0122 20.1156 16.0122 20.1803 16.0208H19.9853C19.4217 16.0209 18.8644 16.14 18.3501 16.3705C17.8357 16.601 17.3759 16.9376 17.0006 17.3582C16.6254 17.7788 16.3432 18.2741 16.1727 18.8114C16.0021 19.3487 15.9469 19.9159 16.0108 20.476C16.1161 21.3737 16.5209 22.2096 17.1598 22.8487C17.7988 23.4878 18.6345 23.8927 19.5319 23.998C20.4768 24.1026 21.428 23.8685 22.2166 23.3376C23.0051 22.8066 23.5798 22.0131 23.8385 21.0982C23.9809 20.5709 23.9545 19.7115 24.0599 19.0472C24.15 18.2094 24.4177 17.4005 24.8453 16.6746C25.3953 15.64 26.1547 14.7314 27.0751 14.0067C28.2924 13.0625 29.7571 12.4911 31.2921 12.3617C32.2956 12.2859 33.2335 11.8335 33.9178 11.0953C34.602 10.3571 34.9821 9.38763 34.9819 8.38097C34.976 7.77463 34.837 7.177 34.5746 6.63034C34.3123 6.08369 33.9331 5.60136 33.4638 5.21748C29.7044 1.78068 24.7718 -0.08531 19.6795 0.00299713C14.4837 0.0939865 9.52658 2.20112 5.85497 5.87951C2.18335 9.55789 0.0846498 14.5196 0.00202654 19.7168C-0.0356973 22.3669 0.453586 24.998 1.44147 27.4573C2.42934 29.9166 3.8961 32.155 5.75647 34.0423C7.61683 35.9296 9.83369 37.4282 12.2782 38.451C14.7227 39.4737 17.3461 40.0003 19.9958 40C25.2239 40.0012 30.2445 37.9535 33.981 34.2959C37.7175 30.6383 39.8726 25.662 39.9843 20.4338C39.9843 20.3969 39.9843 20.2809 39.9843 20.2598C39.9468 19.795 39.853 19.3365 39.7049 18.8943Z" fill="#E11C4E"/>
<path d="M50.9856 15.4142H56.9104V18.0504H48.2129V3.9834H56.8261V6.61964H51.0014V9.61444H56.299V12.2507H50.975L50.9856 15.4142Z" fill="white"/>
<path d="M59.5248 16.8119C59.0308 16.3167 58.6424 15.7263 58.3833 15.0764C58.1241 14.4266 57.9996 13.7309 58.0173 13.0315C57.9996 12.3322 58.1241 11.6365 58.3833 10.9867C58.6424 10.3368 59.0308 9.74644 59.5248 9.25122C60.0197 8.75121 60.6118 8.35802 61.2646 8.09594C61.9174 7.83385 62.617 7.70844 63.3201 7.72747C64.2362 7.7049 65.1409 7.93501 65.9349 8.39258C66.729 8.85014 67.3817 9.51746 67.8218 10.3215L65.592 11.6238C65.376 11.2058 65.0459 10.8576 64.6401 10.6196C64.2342 10.3816 63.7692 10.2637 63.299 10.2793C62.9385 10.2718 62.5803 10.3383 62.2466 10.4747C61.9128 10.6112 61.6105 10.8147 61.3585 11.0727C61.1066 11.3307 60.9102 11.6376 60.7816 11.9745C60.6529 12.3115 60.5948 12.6712 60.6107 13.0315C60.5925 13.7635 60.8655 14.4727 61.3698 15.0035C61.6233 15.2539 61.925 15.4503 62.2566 15.5808C62.5882 15.7113 62.9429 15.7732 63.299 15.7627C63.7705 15.7844 64.2385 15.6714 64.6482 15.4371C65.058 15.2028 65.3926 14.8567 65.6131 14.4393L67.8587 15.7258C67.4083 16.5322 66.7493 17.2025 65.9507 17.6663C65.1522 18.1302 64.2435 18.3705 63.3201 18.362C62.6151 18.3776 61.9144 18.2481 61.2615 17.9814C60.6086 17.7148 60.0175 17.3167 59.5248 16.8119Z" fill="white"/>
<path d="M73.9891 18.3357C73.2886 18.3522 72.5921 18.2256 71.9423 17.9636C71.2924 17.7016 70.7028 17.3097 70.2096 16.8119C69.7112 16.3189 69.3186 15.7293 69.0558 15.0793C68.793 14.4293 68.6654 13.7325 68.681 13.0315C68.6655 12.3337 68.7932 11.6402 69.0561 10.9936C69.319 10.347 69.7116 9.76119 70.2096 9.27226C70.7018 8.77166 71.2907 8.37658 71.9405 8.11099C72.5902 7.8454 73.2873 7.7149 73.9891 7.72746C74.6902 7.71438 75.3866 7.84464 76.0356 8.11028C76.6846 8.37592 77.2725 8.77131 77.7633 9.27226C78.2651 9.75938 78.6616 10.3444 78.9282 10.991C79.1948 11.6377 79.3258 12.3322 79.313 13.0315C79.3258 13.734 79.195 14.4318 78.9285 15.0818C78.662 15.7319 78.2655 16.3207 77.7633 16.8119C77.2713 17.3098 76.6826 17.7018 76.0336 17.9639C75.3846 18.2259 74.6888 18.3524 73.9891 18.3357ZM73.9891 15.8049C74.3498 15.8141 74.7086 15.7491 75.0431 15.614C75.3777 15.4788 75.681 15.2764 75.9342 15.0193C76.1935 14.7589 76.3969 14.4483 76.5319 14.1065C76.667 13.7647 76.7308 13.3989 76.7196 13.0315C76.7308 12.6642 76.667 12.2984 76.5319 11.9566C76.3969 11.6148 76.1935 11.3042 75.9342 11.0438C75.681 10.7867 75.3777 10.5842 75.0431 10.4491C74.7086 10.314 74.3498 10.249 73.9891 10.2582C73.6275 10.2483 73.2677 10.3129 72.9322 10.4481C72.5967 10.5832 72.2925 10.786 72.0387 11.0438C71.7864 11.3082 71.589 11.62 71.4578 11.9612C71.3266 12.3024 71.2643 12.6662 71.2744 13.0315C71.2643 13.3969 71.3266 13.7607 71.4578 14.1019C71.589 14.443 71.7864 14.7548 72.0387 15.0193C72.2925 15.2771 72.5967 15.4799 72.9322 15.615C73.2677 15.7502 73.6275 15.8148 73.9891 15.8049Z" fill="white"/>
<path d="M95.9441 11.8659V18.0505H93.356V12.0398C93.356 10.8377 92.734 10.1312 91.6692 10.1312C90.4831 10.1312 89.7979 10.9379 89.7979 12.4037V18.0505H87.2045V12.0398C87.2045 10.8377 86.5824 10.1312 85.5177 10.1312C84.3738 10.1312 83.6306 10.9379 83.6306 12.4037V18.0505H81.0371V8.03275H83.6095V9.08725C83.9169 8.63832 84.3367 8.27788 84.8269 8.04196C85.3171 7.80604 85.8607 7.70286 86.4032 7.74274C86.947 7.71022 87.4892 7.8278 87.9708 8.08257C88.4523 8.33734 88.8546 8.71949 89.1337 9.18739C89.4671 8.71002 89.9175 8.32642 90.4419 8.07343C90.9662 7.82044 91.5468 7.70655 92.1278 7.74274C94.4577 7.72692 95.9441 9.35615 95.9441 11.8659Z" fill="white"/>
<path d="M105.669 3.98926H108.257V18.051H105.669V16.8647C105.284 17.3528 104.786 17.7409 104.219 17.9961C103.652 18.2512 103.032 18.3659 102.411 18.3304C101.757 18.3376 101.109 18.2055 100.51 17.9427C99.9115 17.68 99.3753 17.2927 98.9376 16.8067C97.9906 15.7788 97.4786 14.4238 97.5091 13.0263C97.4785 11.6351 97.9909 10.2867 98.9376 9.26701C99.3743 8.77819 99.9097 8.3877 100.509 8.12138C101.107 7.85507 101.756 7.71903 102.411 7.72221C103.032 7.68672 103.652 7.80142 104.219 8.05657C104.786 8.31172 105.284 8.69975 105.669 9.18791V3.98926ZM102.896 15.8629C103.263 15.8751 103.629 15.8122 103.971 15.678C104.312 15.5439 104.623 15.3412 104.884 15.0826C105.144 14.8098 105.347 14.488 105.482 14.1359C105.617 13.7838 105.68 13.4084 105.669 13.0316C105.682 12.6577 105.62 12.2849 105.485 11.936C105.35 11.5871 105.145 11.2692 104.884 11.0017C104.627 10.7364 104.317 10.5279 103.975 10.3899C103.633 10.2518 103.265 10.1872 102.896 10.2003C102.524 10.1881 102.154 10.2531 101.808 10.391C101.463 10.5289 101.149 10.7368 100.888 11.0017C100.626 11.2692 100.422 11.5871 100.287 11.936C100.152 12.2849 100.089 12.6577 100.103 13.0316C100.091 13.4084 100.155 13.7838 100.29 14.1359C100.424 14.488 100.628 14.8098 100.888 15.0826C101.154 15.3404 101.468 15.5422 101.813 15.6762C102.158 15.8103 102.526 15.8737 102.896 15.8629Z" fill="white"/>
<path d="M117.077 8.0332H119.85L116.197 18.0826C115.143 20.9772 113.461 22.2425 110.889 22.1002V19.6906C112.275 19.6906 113.039 19.1265 113.524 17.7609L109.402 8.0332H112.238L114.848 14.7873L117.077 8.0332Z" fill="white"/>
<path d="M62.0892 22.1621V36.3423H59.314V27.1454L55.3232 33.7291H54.9991L51.0084 27.1657V36.3423H48.2129V22.1621H51.0894L55.1612 28.8673L59.2127 22.1621H62.0892Z" fill="white"/>
<path d="M66.5893 32.0952C66.9319 33.3606 67.8755 33.9827 69.4252 33.9827C69.8536 34.0118 70.2826 33.9357 70.6748 33.7611C71.0671 33.5865 71.4108 33.3187 71.676 32.981L73.7845 34.1884C73.2985 34.8906 72.6407 35.4566 71.8739 35.8322C71.107 36.2079 70.2567 36.3807 69.4041 36.3343C68.6705 36.3693 67.9374 36.2534 67.2502 35.9941C66.563 35.7347 65.9362 35.3373 65.4085 34.8263C64.9107 34.3306 64.52 33.7378 64.2607 33.0848C64.0014 32.4318 63.8789 31.7325 63.901 31.0302C63.8822 30.3333 64.0041 29.6397 64.2595 28.9911C64.5149 28.3424 64.8986 27.752 65.3874 27.2551C65.8814 26.7476 66.4762 26.3493 67.1336 26.0859C67.7909 25.8226 68.4962 25.7 69.2038 25.7261C69.8843 25.705 70.5613 25.8306 71.1888 26.0944C71.8164 26.3583 72.3799 26.7541 72.841 27.2551C73.3181 27.7584 73.6913 28.3509 73.9392 28.9987C74.187 29.6465 74.3046 30.3368 74.2853 31.0302C74.2811 31.3838 74.2476 31.7365 74.1851 32.0847L66.5893 32.0952ZM71.676 30.0864C71.5789 29.5023 71.272 28.9738 70.8129 28.6001C70.3539 28.2263 69.7742 28.0331 69.1827 28.0565C68.5711 28.0134 67.965 28.1963 67.4792 28.5704C66.9934 28.9446 66.6618 29.4839 66.5471 30.0864H71.676Z" fill="white"/>
<path d="M84.2674 21.9893H86.8451V36.0562H84.2569V34.8699C83.8716 35.3581 83.3744 35.7462 82.8073 36.0013C82.2402 36.2565 81.62 36.3712 80.9993 36.3357C80.3453 36.3429 79.6973 36.2107 79.0983 35.948C78.4994 35.6853 77.9632 35.298 77.5255 34.8119C76.5785 33.784 76.0665 32.429 76.097 31.0316C76.0664 29.6404 76.5788 28.2919 77.5255 27.2723C77.9622 26.7835 78.4976 26.393 79.0965 26.1267C79.6953 25.8603 80.3439 25.7243 80.9993 25.7275C81.62 25.692 82.2402 25.8066 82.8073 26.0618C83.3744 26.3169 83.8716 26.705 84.2569 27.1932L84.2674 21.9893ZM81.4948 33.8681C81.862 33.8794 82.2277 33.8156 82.5694 33.6805C82.9111 33.5454 83.2217 33.3419 83.482 33.0826C83.7422 32.8097 83.9456 32.4879 84.0804 32.1359C84.2152 31.7838 84.2788 31.4084 84.2674 31.0316C84.2807 30.6576 84.218 30.2849 84.083 29.936C83.948 29.5871 83.7435 29.2692 83.482 29.0017C83.2253 28.7363 82.9158 28.5279 82.5735 28.3898C82.2311 28.2518 81.8636 28.1872 81.4948 28.2002C81.1228 28.1881 80.7524 28.2531 80.4068 28.391C80.0612 28.5289 79.7478 28.7368 79.4864 29.0017C79.2249 29.2692 79.0204 29.5871 78.8854 29.936C78.7504 30.2849 78.6877 30.6576 78.701 31.0316C78.6896 31.4084 78.7532 31.7838 78.888 32.1359C79.0228 32.4879 79.2262 32.8097 79.4864 33.0826C79.7517 33.341 80.0661 33.5437 80.4111 33.6787C80.756 33.8136 81.1245 33.878 81.4948 33.8681Z" fill="white"/>
<path d="M88.7266 23.6403C88.7266 23.2208 88.8932 22.8185 89.1897 22.5219C89.4863 22.2252 89.8885 22.0586 90.3079 22.0586C90.7273 22.0586 91.1296 22.2252 91.4261 22.5219C91.7227 22.8185 91.8893 23.2208 91.8893 23.6403C91.881 24.0543 91.7108 24.4486 91.4151 24.7384C91.1194 25.0282 90.7219 25.1906 90.3079 25.1905C89.894 25.1906 89.4964 25.0282 89.2008 24.7384C88.9051 24.4486 88.7348 24.0543 88.7266 23.6403ZM89.027 36.1203V26.0709H91.6205V36.1203H89.027Z" fill="white"/>
<path d="M101.781 26.0078H104.417V36.0571H101.781V34.8708C101.391 35.3579 100.891 35.745 100.321 35.9999C99.7522 36.2548 99.1303 36.3702 98.5075 36.3366C97.8566 36.3435 97.2118 36.2111 96.6163 35.9483C96.0208 35.6855 95.4884 35.2983 95.0548 34.8128C94.1078 33.7849 93.5958 32.4299 93.6263 31.0324C93.5957 29.6412 94.1081 28.2928 95.0548 27.2732C95.4874 26.7849 96.0191 26.3945 96.6145 26.1281C97.2099 25.8617 97.8552 25.7255 98.5075 25.7284C99.1303 25.6947 99.7522 25.8101 100.321 26.065C100.891 26.3199 101.391 26.707 101.781 27.1941V26.0078ZM98.9924 33.869C99.3597 33.8803 99.7254 33.8164 100.067 33.6814C100.409 33.5463 100.719 33.3428 100.98 33.0834C101.246 32.8144 101.455 32.4936 101.593 32.1409C101.73 31.7881 101.794 31.4109 101.781 31.0324C101.796 30.6569 101.733 30.2823 101.595 29.9327C101.457 29.5831 101.247 29.2663 100.98 29.0026C100.723 28.7372 100.413 28.5288 100.071 28.3907C99.7288 28.2527 99.3613 28.1881 98.9924 28.2011C98.6227 28.1873 98.2541 28.2516 97.9108 28.3896C97.5675 28.5277 97.2572 28.7366 96.9999 29.0026C96.7391 29.2703 96.5354 29.5884 96.4013 29.9373C96.2672 30.2863 96.2054 30.6589 96.2197 31.0324C96.2074 31.409 96.27 31.7842 96.4039 32.1363C96.5378 32.4884 96.7404 32.8104 96.9999 33.0834C97.2627 33.3454 97.5766 33.5504 97.9222 33.6856C98.2678 33.8208 98.6375 33.8832 99.0082 33.869H98.9924Z" fill="white"/>
</svg>
