<svg width="40" height="40" viewBox="0 0 40 40" fill="none" xmlns="http://www.w3.org/2000/svg">
<path d="M39.7049 18.8943C39.4126 18.1523 38.9049 17.5149 38.2474 17.0639C37.5898 16.6129 36.8124 16.369 36.0151 16.3635C35.1362 16.3635 34.2819 16.6532 33.5843 17.1879C32.8868 17.7226 32.385 18.4725 32.1566 19.3214C32.1318 19.4062 32.1125 19.4925 32.0986 19.5797C32.0453 19.8615 32.0153 20.1472 32.0089 20.4338C31.9569 22.0241 31.5894 23.5882 30.9277 25.0351C30.266 26.482 29.3233 27.7829 28.1545 28.8622C26.9857 29.9415 25.6141 30.7777 24.1193 31.322C22.6246 31.8664 21.0366 32.1082 19.4476 32.0333C16.4677 31.8841 13.6495 30.633 11.5398 28.5228C9.43008 26.4126 8.17928 23.5937 8.03011 20.6131C7.95169 18.9922 8.20278 17.3723 8.76817 15.8512C9.33356 14.3301 10.2015 12.9396 11.3195 11.7636C12.4376 10.5877 13.7824 9.65075 15.2728 9.00952C16.7632 8.3683 18.3681 8.03606 19.9905 8.03297C21.4913 8.03197 22.979 8.31273 24.3762 8.86072C24.4927 8.90845 24.6055 8.96488 24.7136 9.02948C25.1097 9.26412 25.4498 9.58245 25.7102 9.9622C25.9706 10.3419 26.145 10.774 26.2211 11.2281C26.3036 11.7507 26.2536 12.2857 26.0759 12.784C25.8982 13.2823 25.5983 13.7281 25.2038 14.0805C23.7538 15.3333 21.9013 16.022 19.9853 16.0208C20.05 16.0122 20.1156 16.0122 20.1803 16.0208H19.9853C19.4217 16.0209 18.8644 16.14 18.3501 16.3705C17.8357 16.601 17.3759 16.9376 17.0006 17.3582C16.6254 17.7788 16.3432 18.2741 16.1727 18.8114C16.0021 19.3487 15.9469 19.9159 16.0108 20.476C16.1161 21.3737 16.5209 22.2096 17.1598 22.8487C17.7988 23.4878 18.6345 23.8927 19.5319 23.998C20.4768 24.1026 21.428 23.8685 22.2166 23.3376C23.0051 22.8066 23.5798 22.0131 23.8385 21.0982C23.9809 20.5709 23.9545 19.7115 24.0599 19.0472C24.15 18.2094 24.4177 17.4005 24.8453 16.6746C25.3953 15.64 26.1547 14.7314 27.0751 14.0067C28.2924 13.0625 29.7571 12.4911 31.2921 12.3617C32.2956 12.2859 33.2335 11.8335 33.9178 11.0953C34.602 10.3571 34.9821 9.38763 34.9819 8.38097C34.976 7.77463 34.837 7.177 34.5746 6.63034C34.3123 6.08369 33.9331 5.60136 33.4638 5.21748C29.7044 1.78068 24.7718 -0.08531 19.6795 0.00299713C14.4837 0.0939865 9.52658 2.20112 5.85497 5.87951C2.18335 9.55789 0.0846498 14.5196 0.00202654 19.7168C-0.0356973 22.3669 0.453586 24.998 1.44147 27.4573C2.42934 29.9166 3.8961 32.155 5.75647 34.0423C7.61683 35.9296 9.83369 37.4282 12.2782 38.451C14.7227 39.4737 17.3461 40.0003 19.9958 40C25.2239 40.0012 30.2445 37.9535 33.981 34.2959C37.7175 30.6383 39.8726 25.662 39.9843 20.4338C39.9843 20.3969 39.9843 20.2809 39.9843 20.2598C39.9468 19.795 39.853 19.3365 39.7049 18.8943Z" fill="#E11C4E"/>
</svg>
