<svg width="40" height="40" viewBox="0 0 40 40" fill="none" xmlns="http://www.w3.org/2000/svg">
<rect width="40" height="40" rx="20" fill="white"/>
<path fill-rule="evenodd" clip-rule="evenodd" d="M25.3031 20.1514V17.8787C25.3031 14.9499 22.9289 12.5757 20.0001 12.5757C17.0713 12.5757 14.697 14.9499 14.697 17.8787V20.1514C14.697 22.6514 12.4243 23.2575 12.4243 24.6969C12.4243 25.9848 15.3789 26.9696 20.0001 26.9696C24.6213 26.9696 27.5758 25.9848 27.5758 24.6969C27.5758 23.2575 25.3031 22.6514 25.3031 20.1514Z" stroke="#16213E" stroke-width="1.5" stroke-linecap="round" stroke-linejoin="round"/>
<path d="M20.0003 28.4847C19.2344 28.4847 18.5147 28.4589 17.8374 28.4089C18.1337 29.3542 19.0096 29.9976 20.0003 29.9976C20.9909 29.9976 21.8668 29.3542 22.1632 28.4089C21.4859 28.4589 20.7662 28.4847 20.0003 28.4847Z" fill="#16213E"/>
<circle cx="23.9392" cy="12.7273" r="2.72727" fill="#E11C4E"/>
</svg>
