<svg width="20" height="20" viewBox="0 0 20 20" fill="none" xmlns="http://www.w3.org/2000/svg">
<path d="M7.49984 18.3334H12.4998C16.6665 18.3334 18.3332 16.6667 18.3332 12.5001V7.50008C18.3332 3.33341 16.6665 1.66675 12.4998 1.66675H7.49984C3.33317 1.66675 1.6665 3.33341 1.6665 7.50008V12.5001C1.6665 16.6667 3.33317 18.3334 7.49984 18.3334Z" stroke="white" stroke-width="1.5" stroke-linecap="round" stroke-linejoin="round"/>
<path d="M12.9751 15.4167V12.1667" stroke="white" stroke-width="1.5" stroke-miterlimit="10" stroke-linecap="round" stroke-linejoin="round"/>
<path d="M12.9751 6.20825V4.58325" stroke="white" stroke-width="1.5" stroke-miterlimit="10" stroke-linecap="round" stroke-linejoin="round"/>
<path d="M12.9748 10.5416C14.1714 10.5416 15.1414 9.57154 15.1414 8.37492C15.1414 7.1783 14.1714 6.20825 12.9748 6.20825C11.7782 6.20825 10.8081 7.1783 10.8081 8.37492C10.8081 9.57154 11.7782 10.5416 12.9748 10.5416Z" stroke="white" stroke-width="1.5" stroke-miterlimit="10" stroke-linecap="round" stroke-linejoin="round"/>
<path d="M7.0249 15.4167V13.7917" stroke="white" stroke-width="1.5" stroke-miterlimit="10" stroke-linecap="round" stroke-linejoin="round"/>
<path d="M7.0249 7.83325V4.58325" stroke="white" stroke-width="1.5" stroke-miterlimit="10" stroke-linecap="round" stroke-linejoin="round"/>
<path d="M7.02507 13.7916C8.22168 13.7916 9.19173 12.8215 9.19173 11.6249C9.19173 10.4283 8.22168 9.45825 7.02507 9.45825C5.82845 9.45825 4.8584 10.4283 4.8584 11.6249C4.8584 12.8215 5.82845 13.7916 7.02507 13.7916Z" stroke="white" stroke-width="1.5" stroke-miterlimit="10" stroke-linecap="round" stroke-linejoin="round"/>
</svg>
