<svg width="52" height="52" viewBox="0 0 52 52" fill="none" xmlns="http://www.w3.org/2000/svg">
<rect width="52" height="52" rx="26" fill="#16213E" fill-opacity="0.05"/>
<path d="M35.01 25.22V29.71C35.01 34.2 33.22 36 28.72 36H23.33C22.75 36 22.22 35.97 21.73 35.9" stroke="#292D32" stroke-width="1.5" stroke-linecap="round" stroke-linejoin="round"/>
<path d="M17.04 29.52V25.22" stroke="#292D32" stroke-width="1.5" stroke-linecap="round" stroke-linejoin="round"/>
<path d="M26.0299 26C27.8599 26 29.2099 24.5101 29.0299 22.6801L28.3599 16H23.6899L23.0199 22.6801C22.8399 24.5101 24.1999 26 26.0299 26Z" stroke="#292D32" stroke-width="1.5" stroke-linecap="round" stroke-linejoin="round"/>
<path d="M32.3298 26C34.3498 26 35.8298 24.36 35.6298 22.35L35.3498 19.6C34.9898 17 33.9898 16 31.3698 16H28.3198L29.0198 23.01C29.1998 24.66 30.6798 26 32.3298 26Z" stroke="#292D32" stroke-width="1.5" stroke-linecap="round" stroke-linejoin="round"/>
<path d="M19.6698 26C21.3198 26 22.8098 24.66 22.9698 23.01L23.1898 20.8L23.6698 16H20.6198C17.9998 16 16.9998 17 16.6398 19.6L16.3598 22.35C16.1598 24.36 17.6498 26 19.6698 26Z" stroke="#292D32" stroke-width="1.5" stroke-linecap="round" stroke-linejoin="round"/>
<path d="M23 33C23 33.75 22.79 34.4601 22.42 35.0601C22.23 35.3801 22 35.67 21.73 35.9C21.7 35.94 21.67 35.97 21.63 36C20.93 36.63 20.01 37 19 37C17.78 37 16.69 36.45 15.97 35.59C15.95 35.56 15.92 35.54 15.9 35.51C15.78 35.37 15.67 35.2201 15.58 35.0601C15.21 34.4601 15 33.75 15 33C15 31.74 15.58 30.61 16.5 29.88C16.67 29.74 16.85 29.62 17.04 29.52C17.62 29.19 18.29 29 19 29C20 29 20.9 29.36 21.6 29.97C21.72 30.06 21.83 30.17 21.93 30.28C22.59 31 23 31.95 23 33Z" stroke="#292D32" stroke-width="1.5" stroke-miterlimit="10" stroke-linecap="round" stroke-linejoin="round"/>
<path d="M20.4897 32.98H17.5098" stroke="#292D32" stroke-width="1.5" stroke-miterlimit="10" stroke-linecap="round" stroke-linejoin="round"/>
<path d="M19 31.52V34.51" stroke="#292D32" stroke-width="1.5" stroke-miterlimit="10" stroke-linecap="round" stroke-linejoin="round"/>
</svg>
